<?xml version="1.0" encoding="utf-8"?>
<!-- Generator: Adobe Illustrator 25.2.3, SVG Export Plug-In . SVG Version: 6.00 Build 0)  -->
<svg version="1.1" id="Layer_1" xmlns="http://www.w3.org/2000/svg" xmlns:xlink="http://www.w3.org/1999/xlink" x="0px" y="0px"
	 viewBox="0 0 500 500" style="enable-background:new 0 0 500 500;" xml:space="preserve">
<style type="text/css">
	.st0{fill:#FFFFFF;}
	.st1{fill:#31B396;}
</style>
<circle class="st0" cx="249.61" cy="234.31" r="46.57"/>
<g>
	<g>
		<g>
			<g>
				<path class="st0" d="M84.21,364.03h4.18v25.62h15.84v3.64H84.21V364.03z"/>
				<path class="st0" d="M111.72,392.08c-1.76-0.98-3.13-2.32-4.12-4.03c-0.99-1.71-1.48-3.66-1.48-5.83c0-2.17,0.49-4.12,1.48-5.83
					c0.99-1.71,2.36-3.05,4.12-4.01c1.76-0.96,3.73-1.44,5.94-1.44c2.2,0,4.17,0.48,5.92,1.44c1.74,0.96,3.11,2.3,4.1,4.01
					s1.48,3.66,1.48,5.83c0,2.17-0.5,4.12-1.48,5.83s-2.35,3.06-4.1,4.03s-3.71,1.46-5.92,1.46
					C115.45,393.54,113.47,393.06,111.72,392.08z M121.48,389.05c1.13-0.65,2.01-1.57,2.65-2.76c0.64-1.18,0.96-2.54,0.96-4.08
					c0-1.53-0.32-2.89-0.96-4.08c-0.64-1.18-1.53-2.1-2.65-2.74c-1.13-0.64-2.4-0.96-3.83-0.96c-1.42,0-2.7,0.32-3.82,0.96
					c-1.13,0.64-2.02,1.55-2.68,2.74c-0.66,1.18-0.98,2.54-0.98,4.08c0,1.53,0.33,2.89,0.98,4.08c0.65,1.18,1.55,2.1,2.68,2.76
					c1.13,0.66,2.4,0.98,3.82,0.98C119.08,390.03,120.35,389.7,121.48,389.05z"/>
				<path class="st0" d="M166.86,371.14v30.26h-4.01v-11.45c-0.92,1.17-2.04,2.06-3.37,2.67c-1.32,0.61-2.78,0.92-4.37,0.92
					c-2.15,0-4.07-0.47-5.77-1.42c-1.7-0.95-3.03-2.28-3.99-3.99c-0.96-1.71-1.44-3.69-1.44-5.92s0.48-4.19,1.44-5.89
					c0.96-1.7,2.29-3.02,3.99-3.97c1.7-0.95,3.62-1.42,5.77-1.42c1.64,0,3.15,0.31,4.51,0.94c1.36,0.63,2.49,1.55,3.39,2.78v-3.51
					H166.86z M159.25,389.05c1.14-0.65,2.03-1.57,2.68-2.76c0.64-1.18,0.96-2.54,0.96-4.08c0-1.53-0.33-2.88-0.98-4.06
					c-0.65-1.17-1.55-2.08-2.68-2.74c-1.13-0.66-2.39-0.98-3.78-0.98c-1.42,0-2.7,0.32-3.82,0.96c-1.13,0.64-2.02,1.55-2.68,2.74
					c-0.66,1.18-0.98,2.54-0.98,4.08c0,1.53,0.33,2.89,0.98,4.08c0.65,1.18,1.55,2.1,2.68,2.76c1.13,0.66,2.4,0.98,3.82,0.98
					C156.84,390.03,158.11,389.7,159.25,389.05z"/>
				<path class="st0" d="M195.11,371.14v22.16h-3.8v-3.34c-0.81,1.14-1.87,2.03-3.2,2.65c-1.32,0.63-2.77,0.94-4.33,0.94
					c-2.95,0-5.28-0.82-6.98-2.45c-1.7-1.63-2.55-4.03-2.55-7.21v-12.75h4.01v12.29c0,2.15,0.52,3.77,1.55,4.87
					c1.03,1.1,2.51,1.65,4.43,1.65c2.12,0,3.79-0.64,5.02-1.92c1.23-1.28,1.84-3.09,1.84-5.43v-11.45H195.11z"/>
				<path class="st0" d="M222.7,383.55h-17.98c0.25,1.95,1.11,3.52,2.57,4.7c1.46,1.18,3.28,1.78,5.46,1.78
					c2.65,0,4.78-0.89,6.4-2.67l2.22,2.59c-1,1.17-2.25,2.06-3.74,2.67c-1.49,0.61-3.16,0.92-5,0.92c-2.34,0-4.42-0.48-6.23-1.44
					c-1.81-0.96-3.21-2.31-4.2-4.03c-0.99-1.73-1.48-3.68-1.48-5.85c0-2.15,0.48-4.08,1.44-5.81c0.96-1.73,2.28-3.07,3.97-4.03
					c1.69-0.96,3.59-1.44,5.71-1.44c2.12,0,4.01,0.48,5.66,1.44c1.66,0.96,2.95,2.31,3.89,4.03c0.93,1.73,1.4,3.71,1.4,5.94
					C222.79,382.65,222.76,383.05,222.7,383.55z M207.01,376.07c-1.3,1.17-2.06,2.7-2.28,4.6h14.21c-0.22-1.87-0.98-3.39-2.28-4.58
					c-1.3-1.18-2.91-1.78-4.83-1.78S208.3,374.9,207.01,376.07z"/>
				<path class="st0" d="M258.13,373.37c1.66,1.63,2.49,4.02,2.49,7.17v12.75h-4.01V381c0-2.15-0.52-3.76-1.55-4.85
					s-2.51-1.63-4.43-1.63c-2.17,0-3.89,0.63-5.14,1.9c-1.25,1.27-1.88,3.09-1.88,5.46v11.41h-4.01v-22.16h3.85v3.34
					c0.81-1.14,1.9-2.02,3.28-2.63c1.38-0.61,2.95-0.92,4.7-0.92C254.24,370.93,256.47,371.74,258.13,373.37z"/>
				<path class="st0" d="M271.74,392.08c-1.76-0.98-3.13-2.32-4.12-4.03s-1.48-3.66-1.48-5.83c0-2.17,0.49-4.12,1.48-5.83
					s2.36-3.05,4.12-4.01c1.76-0.96,3.73-1.44,5.94-1.44s4.17,0.48,5.92,1.44c1.74,0.96,3.11,2.3,4.1,4.01s1.48,3.66,1.48,5.83
					c0,2.17-0.5,4.12-1.48,5.83s-2.36,3.06-4.1,4.03c-1.74,0.98-3.71,1.46-5.92,1.46S273.49,393.06,271.74,392.08z M281.5,389.05
					c1.13-0.65,2.01-1.57,2.65-2.76c0.64-1.18,0.96-2.54,0.96-4.08c0-1.53-0.32-2.89-0.96-4.08c-0.64-1.18-1.53-2.1-2.65-2.74
					c-1.13-0.64-2.4-0.96-3.83-0.96c-1.42,0-2.7,0.32-3.83,0.96c-1.13,0.64-2.02,1.55-2.67,2.74c-0.66,1.18-0.98,2.54-0.98,4.08
					c0,1.53,0.33,2.89,0.98,4.08c0.65,1.18,1.55,2.1,2.67,2.76c1.13,0.66,2.4,0.98,3.83,0.98
					C279.09,390.03,280.37,389.7,281.5,389.05z"/>
				<path class="st0" d="M307.1,392.81c-1.67-0.49-2.98-1.11-3.93-1.86l1.67-3.18c0.97,0.7,2.16,1.25,3.55,1.67s2.8,0.63,4.22,0.63
					c3.51,0,5.27-1,5.27-3.01c0-0.67-0.24-1.2-0.71-1.59c-0.47-0.39-1.07-0.67-1.78-0.86c-0.71-0.18-1.72-0.38-3.03-0.61
					c-1.78-0.28-3.24-0.6-4.37-0.96c-1.13-0.36-2.1-0.98-2.91-1.84c-0.81-0.86-1.21-2.08-1.21-3.64c0-2.01,0.84-3.62,2.51-4.83
					c1.67-1.21,3.92-1.82,6.73-1.82c1.48,0,2.95,0.18,4.43,0.54c1.48,0.36,2.69,0.85,3.64,1.46l-1.71,3.18
					c-1.81-1.17-3.94-1.76-6.4-1.76c-1.7,0-3,0.28-3.89,0.84c-0.89,0.56-1.34,1.3-1.34,2.22c0,0.72,0.25,1.3,0.75,1.71
					s1.12,0.72,1.86,0.92c0.74,0.2,1.78,0.42,3.11,0.67c1.78,0.31,3.23,0.63,4.33,0.98c1.1,0.35,2.04,0.94,2.82,1.78
					c0.78,0.84,1.17,2.01,1.17,3.51c0,2.01-0.86,3.6-2.57,4.79s-4.05,1.78-7,1.78C310.51,393.54,308.77,393.3,307.1,392.81z"/>
				<path class="st0" d="M346.86,383.55h-17.98c0.25,1.95,1.11,3.52,2.57,4.7s3.28,1.78,5.46,1.78c2.65,0,4.78-0.89,6.4-2.67
					l2.22,2.59c-1,1.17-2.25,2.06-3.74,2.67c-1.49,0.61-3.16,0.92-5,0.92c-2.34,0-4.42-0.48-6.23-1.44
					c-1.81-0.96-3.21-2.31-4.2-4.03c-0.99-1.73-1.48-3.68-1.48-5.85c0-2.15,0.48-4.08,1.44-5.81c0.96-1.73,2.28-3.07,3.97-4.03
					c1.69-0.96,3.59-1.44,5.71-1.44s4.01,0.48,5.66,1.44c1.66,0.96,2.95,2.31,3.89,4.03c0.93,1.73,1.4,3.71,1.4,5.94
					C346.94,382.65,346.91,383.05,346.86,383.55z M331.16,376.07c-1.3,1.17-2.06,2.7-2.28,4.6h14.21c-0.22-1.87-0.98-3.39-2.28-4.58
					c-1.3-1.18-2.91-1.78-4.83-1.78S332.45,374.9,331.16,376.07z"/>
				<path class="st0" d="M383.35,371.14l-9.7,22.16h-4.1l-9.7-22.16h4.18l7.61,17.77l7.77-17.77H383.35z"/>
				<path class="st0" d="M406.42,383.55h-17.98c0.25,1.95,1.11,3.52,2.57,4.7s3.28,1.78,5.46,1.78c2.65,0,4.78-0.89,6.4-2.67
					l2.22,2.59c-1,1.17-2.25,2.06-3.74,2.67c-1.49,0.61-3.16,0.92-5,0.92c-2.34,0-4.42-0.48-6.23-1.44
					c-1.81-0.96-3.21-2.31-4.2-4.03c-0.99-1.73-1.48-3.68-1.48-5.85c0-2.15,0.48-4.08,1.44-5.81c0.96-1.73,2.28-3.07,3.97-4.03
					c1.69-0.96,3.59-1.44,5.71-1.44s4.01,0.48,5.66,1.44c1.66,0.96,2.95,2.31,3.89,4.03c0.93,1.73,1.4,3.71,1.4,5.94
					C406.51,382.65,406.48,383.05,406.42,383.55z M390.73,376.07c-1.3,1.17-2.06,2.7-2.28,4.6h14.21c-0.22-1.87-0.98-3.39-2.28-4.58
					c-1.3-1.18-2.91-1.78-4.83-1.78S392.02,374.9,390.73,376.07z"/>
				<path class="st0" d="M415.01,388.63c0.52,0.54,0.77,1.22,0.77,2.03c0,0.42-0.05,0.82-0.15,1.21s-0.29,0.99-0.56,1.8l-1.96,5.81
					h-2.63l1.55-6.23c-0.53-0.19-0.96-0.52-1.28-0.98s-0.48-1-0.48-1.61c0-0.84,0.26-1.52,0.79-2.05s1.2-0.79,2.01-0.79
					C413.85,387.82,414.5,388.09,415.01,388.63z"/>
				<path class="st0" d="M141.5,432.17h-17.98c0.25,1.95,1.11,3.52,2.57,4.7c1.46,1.18,3.28,1.78,5.46,1.78
					c2.65,0,4.78-0.89,6.4-2.67l2.22,2.59c-1,1.17-2.25,2.06-3.74,2.67c-1.49,0.61-3.16,0.92-5,0.92c-2.34,0-4.42-0.48-6.23-1.44
					c-1.81-0.96-3.21-2.31-4.2-4.03c-0.99-1.73-1.48-3.68-1.48-5.85c0-2.15,0.48-4.08,1.44-5.81c0.96-1.73,2.28-3.07,3.97-4.03
					c1.69-0.96,3.59-1.44,5.71-1.44c2.12,0,4.01,0.48,5.66,1.44c1.66,0.96,2.95,2.31,3.89,4.03c0.93,1.73,1.4,3.71,1.4,5.94
					C141.59,431.26,141.56,431.67,141.5,432.17z M125.81,424.69c-1.3,1.17-2.06,2.7-2.28,4.6h14.21c-0.22-1.87-0.98-3.39-2.28-4.58
					c-1.3-1.18-2.91-1.78-4.83-1.78S127.1,423.52,125.81,424.69z"/>
				<path class="st0" d="M148.28,441.43c-1.67-0.49-2.98-1.11-3.93-1.86l1.67-3.18c0.98,0.7,2.16,1.25,3.55,1.67
					c1.39,0.42,2.8,0.63,4.22,0.63c3.51,0,5.27-1,5.27-3.01c0-0.67-0.24-1.2-0.71-1.59c-0.47-0.39-1.07-0.67-1.78-0.86
					c-0.71-0.18-1.72-0.38-3.03-0.61c-1.78-0.28-3.24-0.6-4.37-0.96c-1.13-0.36-2.1-0.98-2.91-1.84c-0.81-0.86-1.21-2.08-1.21-3.64
					c0-2.01,0.84-3.62,2.51-4.83c1.67-1.21,3.92-1.82,6.73-1.82c1.48,0,2.95,0.18,4.43,0.54c1.48,0.36,2.69,0.85,3.64,1.46
					l-1.71,3.18c-1.81-1.17-3.94-1.76-6.4-1.76c-1.7,0-3,0.28-3.89,0.84c-0.89,0.56-1.34,1.3-1.34,2.22c0,0.72,0.25,1.3,0.75,1.71
					s1.12,0.72,1.86,0.92c0.74,0.2,1.78,0.42,3.11,0.67c1.78,0.31,3.23,0.63,4.33,0.98c1.1,0.35,2.04,0.94,2.82,1.78
					s1.17,2.01,1.17,3.51c0,2.01-0.86,3.6-2.57,4.79c-1.71,1.18-4.05,1.78-7,1.78C151.69,442.16,149.95,441.92,148.28,441.43z"/>
				<path class="st0" d="M197.87,421.99c1.66,1.63,2.49,4.02,2.49,7.17v12.75h-4.01v-12.29c0-2.15-0.52-3.76-1.55-4.85
					c-1.03-1.09-2.51-1.63-4.43-1.63c-2.17,0-3.89,0.63-5.14,1.9c-1.25,1.27-1.88,3.09-1.88,5.46v11.41h-4.01v-22.16h3.85v3.34
					c0.81-1.14,1.9-2.02,3.28-2.63c1.38-0.61,2.95-0.92,4.7-0.92C193.98,419.55,196.22,420.36,197.87,421.99z"/>
				<path class="st0" d="M227.87,432.17h-17.98c0.25,1.95,1.11,3.52,2.57,4.7c1.46,1.18,3.28,1.78,5.46,1.78
					c2.65,0,4.78-0.89,6.4-2.67l2.22,2.59c-1,1.17-2.25,2.06-3.74,2.67c-1.49,0.61-3.16,0.92-5,0.92c-2.34,0-4.42-0.48-6.23-1.44
					c-1.81-0.96-3.21-2.31-4.2-4.03c-0.99-1.73-1.48-3.68-1.48-5.85c0-2.15,0.48-4.08,1.44-5.81c0.96-1.73,2.28-3.07,3.97-4.03
					c1.69-0.96,3.59-1.44,5.71-1.44c2.12,0,4.01,0.48,5.66,1.44c1.66,0.96,2.95,2.31,3.89,4.03c0.93,1.73,1.4,3.71,1.4,5.94
					C227.95,431.26,227.92,431.67,227.87,432.17z M212.17,424.69c-1.3,1.17-2.06,2.7-2.28,4.6h14.21c-0.22-1.87-0.98-3.39-2.28-4.58
					c-1.3-1.18-2.91-1.78-4.83-1.78S213.47,423.52,212.17,424.69z"/>
				<path class="st0" d="M237.13,440.7c-1.77-0.98-3.16-2.32-4.16-4.03c-1-1.71-1.5-3.66-1.5-5.83c0-2.17,0.5-4.12,1.5-5.83
					c1-1.71,2.39-3.05,4.16-4.01c1.77-0.96,3.78-1.44,6.04-1.44c2.01,0,3.8,0.4,5.37,1.21c1.57,0.81,2.79,1.98,3.66,3.51l-3.05,1.96
					c-0.7-1.06-1.56-1.85-2.59-2.38c-1.03-0.53-2.17-0.79-3.43-0.79c-1.45,0-2.75,0.32-3.91,0.96c-1.16,0.64-2.06,1.55-2.72,2.74
					c-0.66,1.18-0.98,2.54-0.98,4.08c0,1.56,0.33,2.93,0.98,4.12c0.65,1.18,1.56,2.1,2.72,2.74c1.16,0.64,2.46,0.96,3.91,0.96
					c1.25,0,2.4-0.26,3.43-0.79c1.03-0.53,1.9-1.32,2.59-2.38l3.05,1.92c-0.86,1.53-2.08,2.71-3.66,3.53
					c-1.57,0.82-3.37,1.23-5.37,1.23C240.91,442.16,238.89,441.67,237.13,440.7z"/>
				<path class="st0" d="M276.98,432.17h-17.98c0.25,1.95,1.11,3.52,2.57,4.7s3.28,1.78,5.46,1.78c2.65,0,4.78-0.89,6.4-2.67
					l2.22,2.59c-1,1.17-2.25,2.06-3.74,2.67c-1.49,0.61-3.16,0.92-5,0.92c-2.34,0-4.42-0.48-6.23-1.44
					c-1.81-0.96-3.21-2.31-4.2-4.03c-0.99-1.73-1.48-3.68-1.48-5.85c0-2.15,0.48-4.08,1.44-5.81c0.96-1.73,2.28-3.07,3.97-4.03
					c1.69-0.96,3.59-1.44,5.71-1.44s4.01,0.48,5.66,1.44c1.66,0.96,2.95,2.31,3.89,4.03c0.93,1.73,1.4,3.71,1.4,5.94
					C277.07,431.26,277.04,431.67,276.98,432.17z M261.29,424.69c-1.3,1.17-2.06,2.7-2.28,4.6h14.21c-0.22-1.87-0.98-3.39-2.28-4.58
					c-1.3-1.18-2.91-1.78-4.83-1.78S262.58,423.52,261.29,424.69z"/>
				<path class="st0" d="M283.76,441.43c-1.67-0.49-2.98-1.11-3.93-1.86l1.67-3.18c0.97,0.7,2.16,1.25,3.55,1.67s2.8,0.63,4.22,0.63
					c3.51,0,5.27-1,5.27-3.01c0-0.67-0.24-1.2-0.71-1.59c-0.47-0.39-1.07-0.67-1.78-0.86c-0.71-0.18-1.72-0.38-3.03-0.61
					c-1.78-0.28-3.24-0.6-4.37-0.96c-1.13-0.36-2.1-0.98-2.91-1.84c-0.81-0.86-1.21-2.08-1.21-3.64c0-2.01,0.84-3.62,2.51-4.83
					c1.67-1.21,3.92-1.82,6.73-1.82c1.48,0,2.95,0.18,4.43,0.54c1.48,0.36,2.69,0.85,3.64,1.46l-1.71,3.18
					c-1.81-1.17-3.94-1.76-6.4-1.76c-1.7,0-3,0.28-3.89,0.84c-0.89,0.56-1.34,1.3-1.34,2.22c0,0.72,0.25,1.3,0.75,1.71
					s1.12,0.72,1.86,0.92c0.74,0.2,1.78,0.42,3.11,0.67c1.78,0.31,3.23,0.63,4.33,0.98c1.1,0.35,2.04,0.94,2.82,1.78
					c0.78,0.84,1.17,2.01,1.17,3.51c0,2.01-0.86,3.6-2.57,4.79s-4.05,1.78-7,1.78C287.17,442.16,285.43,441.92,283.76,441.43z"/>
				<path class="st0" d="M318.68,421.8c1.63,1.5,2.45,3.75,2.45,6.73v13.38h-3.8v-2.93c-0.67,1.03-1.62,1.82-2.86,2.36
					c-1.24,0.54-2.71,0.82-4.41,0.82c-2.48,0-4.47-0.6-5.96-1.8c-1.49-1.2-2.24-2.77-2.24-4.72c0-1.95,0.71-3.52,2.13-4.7
					c1.42-1.18,3.68-1.78,6.77-1.78h6.35v-0.79c0-1.73-0.5-3.05-1.5-3.97c-1-0.92-2.48-1.38-4.43-1.38c-1.31,0-2.59,0.22-3.85,0.65
					c-1.25,0.43-2.31,1.01-3.18,1.74l-1.67-3.01c1.14-0.92,2.51-1.62,4.1-2.11c1.59-0.49,3.27-0.73,5.06-0.73
					C314.7,419.55,317.05,420.3,318.68,421.8z M314.69,438.04c1.11-0.68,1.92-1.65,2.42-2.91v-3.09h-6.19c-3.4,0-5.1,1.14-5.1,3.43
					c0,1.12,0.43,1.99,1.3,2.63c0.86,0.64,2.06,0.96,3.59,0.96C312.25,439.07,313.57,438.73,314.69,438.04z"/>
				<path class="st0" d="M335.51,420.55c1.37-0.67,3.02-1,4.97-1v3.89c-0.22-0.03-0.53-0.04-0.92-0.04c-2.17,0-3.88,0.65-5.12,1.94
					c-1.24,1.3-1.86,3.14-1.86,5.54v11.04h-4.01v-22.16h3.85v3.72C333.11,422.19,334.14,421.22,335.51,420.55z"/>
				<path class="st0" d="M345.48,414.74c-0.52-0.5-0.77-1.11-0.77-1.84s0.26-1.34,0.77-1.86c0.51-0.52,1.16-0.77,1.94-0.77
					s1.43,0.24,1.94,0.73c0.52,0.49,0.77,1.09,0.77,1.82c0,0.75-0.26,1.39-0.77,1.9s-1.16,0.77-1.94,0.77
					S345.99,415.24,345.48,414.74z M345.41,419.75h4.01v22.16h-4.01V419.75z"/>
				<path class="st0" d="M360.63,440.7c-1.76-0.98-3.13-2.32-4.12-4.03s-1.48-3.66-1.48-5.83c0-2.17,0.49-4.12,1.48-5.83
					s2.36-3.05,4.12-4.01c1.76-0.96,3.73-1.44,5.94-1.44s4.17,0.48,5.92,1.44c1.74,0.96,3.11,2.3,4.1,4.01s1.48,3.66,1.48,5.83
					c0,2.17-0.5,4.12-1.48,5.83s-2.36,3.06-4.1,4.03c-1.74,0.98-3.71,1.46-5.92,1.46S362.39,441.67,360.63,440.7z M370.39,437.67
					c1.13-0.65,2.01-1.57,2.65-2.76c0.64-1.18,0.96-2.54,0.96-4.08c0-1.53-0.32-2.89-0.96-4.08c-0.64-1.18-1.53-2.1-2.65-2.74
					c-1.13-0.64-2.4-0.96-3.83-0.96c-1.42,0-2.7,0.32-3.83,0.96c-1.13,0.64-2.02,1.55-2.67,2.74c-0.66,1.18-0.98,2.54-0.98,4.08
					c0,1.53,0.33,2.89,0.98,4.08c0.65,1.18,1.55,2.1,2.67,2.76c1.13,0.66,2.4,0.98,3.83,0.98
					C367.99,438.65,369.26,438.32,370.39,437.67z"/>
			</g>
		</g>
		<circle class="st1" cx="256.77" cy="187.61" r="129.77"/>
	</g>
	<g>
		<g>
			<path class="st0" d="M256.27,245.62c-3.33,0-6.97-0.71-10.82-2.56c-2.82,0.56-16.13,2.69-26.02-4.78
				c-8.63-6.52-12.37-13.72-13.55-16.45c-3.84,0.65-15.98,2.25-23.43-1.84c-2-1.1-3.87-3.6-6.04-6.5
				c-5.33-7.13-11.96-15.99-24.09-10.38c-0.48,0.23-1.05,0.17-1.48-0.16c-0.42-0.32-0.62-0.84-0.51-1.35
				c0.12-0.53,2.94-12.98,12.1-18.18c4.33-2.46,9.32-2.87,14.84-1.23c17.98,5.34,19.74,4.46,23.24,2.72l0.32-0.16
				c1.1-3.24,7.14-18.54,23.2-19.49c-0.41-4.41-0.47-17.12,11-25.88c6.37-4.86,18.26-9.66,30.8-7.21
				c10.15,1.99,18.71,8.49,24.79,18.82c3.25-0.13,14.31,0,21.9,6.56c4.4,3.81,6.83,9.08,7.23,15.69c5.38,0.68,25.8,4.81,27.86,28.34
				c0.96,10.96-4.8,22.14-14.33,27.81c-9.22,5.49-20.33,5.11-31.39-1.03c-2.66,3.7-12.03,14.61-26.94,9.32
				C272.8,239.77,265.8,245.62,256.27,245.62z M245.64,240.28c0.22,0,0.45,0.05,0.65,0.15c15.37,7.68,26.77-4.67,27.25-5.2
				c0.4-0.44,1.04-0.58,1.59-0.37c15.96,6.27,24.74-8.35,25.11-8.97c0.19-0.32,0.5-0.55,0.87-0.65c0.37-0.09,0.76-0.04,1.09,0.16
				c10.51,6.22,21.03,6.82,29.63,1.71c8.65-5.15,13.88-15.31,13.01-25.27c-2.15-24.59-25.49-25.94-26.48-25.98
				c-0.74-0.03-1.33-0.61-1.34-1.33c-0.15-6.39-2.28-11.4-6.34-14.91c-7.89-6.83-20.58-5.85-20.71-5.84
				c-0.55,0.06-1.09-0.23-1.36-0.7c-5.78-10.19-13.62-16.32-23.32-18.22c-11.59-2.27-22.59,2.17-28.49,6.67
				c-12.43,9.49-9.8,24.67-9.77,24.82c0.07,0.4-0.04,0.8-0.31,1.11c-0.27,0.31-0.66,0.49-1.08,0.49
				c-17.02,0-22.21,17.95-22.27,18.13c-0.1,0.38-0.37,0.69-0.73,0.86l-0.83,0.41c-4.47,2.23-7.01,2.92-25.36-2.53
				c-4.74-1.41-8.97-1.08-12.58,0.98c-5.74,3.26-8.74,10.07-10.01,13.81c12.56-4.1,19.88,5.7,24.84,12.33
				c1.89,2.53,3.68,4.92,5.15,5.73c7.83,4.29,22.49,1.36,22.64,1.32c0.7-0.15,1.41,0.25,1.63,0.9c0.03,0.09,3.08,8.75,13.06,16.28
				c9.8,7.4,23.99,4.2,24.14,4.17C245.41,240.29,245.53,240.28,245.64,240.28z"/>
		</g>
		<g>
			<path class="st0" d="M232.62,186.87c-0.3,0-0.59-0.01-0.88-0.04c-3.99-0.36-6.92-2.83-7.13-6.01c-0.05-0.75,0.54-1.39,1.32-1.44
				c0.77-0.01,1.44,0.53,1.49,1.27c0.13,2.12,2.47,3.28,4.58,3.47c2.45,0.23,5.41-0.74,6.29-4.1c0.74-2.88,0.4-5.2-1.04-7.1
				c-3.37-4.44-11.61-4.98-11.69-4.99c-0.78-0.05-1.37-0.69-1.32-1.44c0.05-0.75,0.76-1.29,1.49-1.27
				c0.39,0.02,9.63,0.62,13.79,6.09c1.95,2.56,2.45,5.72,1.5,9.37C239.88,185.03,236.13,186.87,232.62,186.87z"/>
		</g>
		<g>
			<path class="st0" d="M206.77,221.66c-0.64,0-1.22-0.42-1.37-1.05c-0.18-0.73,0.29-1.46,1.05-1.63c0.71-0.23,2.52-3.04,3.3-7.34
				c0.42-2.31,1-7.98-2.52-10.7c-7.16-5.53-6.65-14.91-6.62-15.31c0.05-0.75,0.66-1.35,1.49-1.27c0.77,0.04,1.37,0.69,1.32,1.44
				c0,0.08-0.43,8.39,5.57,13.02c3.54,2.73,4.76,8.15,3.28,14.49c-0.81,3.48-2.66,7.74-5.17,8.32
				C206.99,221.64,206.88,221.66,206.77,221.66z"/>
		</g>
		<g>
			<path class="st0" d="M244.69,243c-0.52,0-1.01-0.27-1.26-0.75c-0.35-0.67-0.07-1.49,0.62-1.82c0.14-0.07,13.51-6.68,17.01-17.23
				c1.79-5.41,1.41-10.89-1.06-15.04c-1.88-3.16-4.79-5.3-8.19-6.03c-4.43-0.95-9.87,0.84-12.63,4.17
				c-1.51,1.82-2.87,4.86-0.84,9.01c1.96,4.01,5.62,4.69,8.19,3.62c1.6-0.67,2.89-2.11,2.19-3.83c-0.29-0.7,0.07-1.49,0.79-1.76
				c0.72-0.28,1.54,0.07,1.82,0.76c1.19,2.9-0.33,5.91-3.69,7.32c-3.89,1.63-9.21,0.45-11.85-4.95c-2.07-4.22-1.64-8.44,1.19-11.86
				c3.44-4.15,9.93-6.31,15.44-5.13c4.19,0.9,7.75,3.5,10.02,7.33c2.86,4.82,3.34,11.09,1.3,17.23
				c-3.86,11.65-17.83,18.54-18.43,18.83C245.11,242.95,244.9,243,244.69,243z"/>
		</g>
		<g>
			<path class="st0" d="M266.78,188.91c-6.66,0-12.79-2.42-16.39-6.47c-3.09-3.48-4.29-8.01-3.48-13.12c1.19-7.46,7-9.99,11.49-9.97
				c5.06,0.07,9.13,3.18,9.67,7.39c0.63,4.89-2.61,7.23-4.41,7.79c-0.75,0.22-1.53-0.17-1.77-0.88c-0.24-0.71,0.17-1.48,0.91-1.71
				c0.29-0.1,2.96-1.1,2.47-4.87c-0.44-3.38-3.9-4.97-6.92-5.01c-3.55-0.02-7.76,1.94-8.67,7.66c-0.7,4.36,0.26,8.04,2.83,10.94
				c3.07,3.46,8.4,5.52,14.26,5.52c10.45,0,19.29-8.91,22.3-17.3c3.01-8.38-1.32-17.15-1.37-17.24c-0.34-0.68-0.05-1.49,0.65-1.82
				c0.7-0.32,1.54-0.05,1.88,0.63c0.2,0.4,4.88,9.88,1.49,19.32C288.42,179.05,278.53,188.91,266.78,188.91z"/>
		</g>
		<g>
			<path class="st0" d="M274.6,237.48c-0.33,0-0.65-0.11-0.92-0.33c-0.59-0.49-0.65-1.35-0.15-1.91c0.08-0.09,8.1-9.36,5.39-25.57
				c-2.8-16.77-19.78-21.86-19.95-21.91c-0.74-0.21-1.17-0.97-0.94-1.69c0.22-0.72,1-1.13,1.75-0.91
				c0.19,0.05,18.84,5.65,21.92,24.08c2.93,17.53-5.67,27.37-6.04,27.78C275.38,237.32,274.99,237.48,274.6,237.48z"/>
		</g>
		<g>
			<path class="st0" d="M304.13,182.47c-0.07,0-0.15-0.01-0.23-0.02c-0.77-0.12-1.29-0.82-1.16-1.56
				c2.45-14.66-10.89-19.46-11.46-19.66c-0.73-0.25-1.11-1.03-0.85-1.74c0.26-0.71,1.06-1.07,1.79-0.82
				c0.16,0.06,16.12,5.72,13.29,22.65C305.4,181.99,304.81,182.47,304.13,182.47z"/>
		</g>
		<g>
			<path class="st0" d="M301.46,227.91c-0.42,0-0.83-0.18-1.11-0.52c-0.48-0.59-0.38-1.44,0.23-1.91
				c0.14-0.11,13.85-10.7,14.61-23.34c0.42-6.98-0.98-12.38-4.04-15.63c-2.07-2.2-4.91-3.37-8.42-3.49
				c-4.38-0.14-8.02,1.89-9.64,5.46c-1.31,2.88-0.97,6.03,0.86,7.82c1.61,1.58,3.61,2.28,5.62,1.99c2.1-0.3,3.93-1.63,5.02-3.65
				c0.36-0.67,1.21-0.92,1.9-0.58c0.69,0.35,0.95,1.17,0.6,1.83c-1.51,2.79-4.1,4.65-7.1,5.08c-2.93,0.42-5.79-0.56-8.04-2.78
				c-2.63-2.58-3.2-6.93-1.43-10.82c2.11-4.62,6.75-7.26,12.32-7.08c4.3,0.15,7.8,1.62,10.4,4.38c3.59,3.8,5.23,9.89,4.77,17.62
				c-0.83,13.87-15.07,24.86-15.68,25.32C302.07,227.81,301.76,227.91,301.46,227.91z"/>
		</g>
	</g>
</g>
</svg>
