<?xml version="1.0" encoding="utf-8"?>
<!-- Generator: Adobe Illustrator 25.2.3, SVG Export Plug-In . SVG Version: 6.00 Build 0)  -->
<svg version="1.1" id="Layer_1" xmlns="http://www.w3.org/2000/svg" xmlns:xlink="http://www.w3.org/1999/xlink" x="0px" y="0px"
	 viewBox="0 0 500 500" style="enable-background:new 0 0 500 500;" xml:space="preserve">
<style type="text/css">
	.st0{fill:#31B396;}
	.st1{fill:#EE3154;}
</style>
<g id="XMLID_14_">
	<g id="XMLID_19_">
		<path class="st0" d="M250,438.3C146.3,438.3,61.7,353.7,61.7,250S146.3,61.7,250,61.7S438.3,146.3,438.3,250
			S353.7,438.3,250,438.3z M250,75.63c-95.96,0-174.37,77.9-174.37,174.37c0,95.96,77.9,174.37,174.37,174.37
			S424.37,345.96,424.37,250S345.96,75.63,250,75.63z"/>
	</g>
	<g id="XMLID_15_">
		<g id="XMLID_18_">
			<g>
				<path class="st1" d="M250,168.49c26.31,0,29.92,0,40.24,0.52c9.8,0.52,14.96,2.06,18.57,3.61c4.64,1.55,7.74,4.13,11.35,7.22
					c3.61,3.61,5.67,6.71,7.22,11.35c1.55,3.61,3.1,8.77,3.61,18.57c0.52,10.32,0.52,13.41,0.52,40.24s0,29.92-0.52,40.24
					c-0.52,9.8-2.06,14.96-3.61,18.57c-1.55,4.64-4.13,7.74-7.22,11.35c-3.61,3.61-6.71,5.67-11.35,7.22
					c-3.61,1.55-8.77,3.1-18.57,3.61c-10.32,0.52-13.41,0.52-40.24,0.52s-29.92,0-40.24-0.52c-9.8-0.52-14.96-2.06-18.57-3.61
					c-4.64-1.55-7.74-4.13-11.35-7.22c-3.61-3.61-5.67-6.71-7.22-11.35c-1.55-3.61-3.1-8.77-3.61-18.57
					c-0.52-10.32-0.52-13.41-0.52-40.24s0-29.92,0.52-40.24c0.52-9.8,2.06-14.96,3.61-18.57c1.55-4.64,4.13-7.74,7.22-11.35
					c3.61-3.61,6.71-5.67,11.35-7.22c3.61-1.55,8.77-3.1,18.57-3.61C220.08,168.49,223.69,168.49,250,168.49 M250,150.43
					c-26.83,0-30.44,0-40.76,0.52c-10.83,0.52-18.06,2.06-24.25,4.64c-6.71,2.58-12.38,6.19-17.54,11.87
					c-5.67,5.67-8.77,10.83-11.35,17.54c-2.58,6.19-4.13,13.41-4.64,24.25c-0.52,10.83-0.52,13.93-0.52,40.76s0,30.44,0.52,40.76
					c0.52,10.83,2.06,18.06,4.64,24.25c2.58,6.71,6.19,11.87,11.35,17.54c5.67,5.67,10.83,8.77,17.54,11.35
					c6.19,2.58,13.41,4.13,24.25,4.64c10.83,0.52,13.93,0.52,40.76,0.52s30.44,0,40.76-0.52c10.83-0.52,18.06-2.06,24.25-4.64
					c6.71-2.58,11.87-6.19,17.54-11.35c5.67-5.16,8.77-10.83,11.35-17.54c2.58-6.19,4.13-13.41,4.64-24.25
					c0.52-10.83,0.52-13.93,0.52-40.76s0-30.44-0.52-40.76c-0.52-10.83-2.06-18.06-4.64-24.25c-2.06-6.71-5.67-12.38-11.35-17.54
					c-5.67-5.16-10.83-8.77-17.54-11.35c-6.19-2.58-13.41-4.13-24.25-4.64C280.44,150.43,276.83,150.43,250,150.43"/>
			</g>
		</g>
		<g id="XMLID_17_">
			<g>
				<path class="st1" d="M250,198.93c-28.37,0-51.07,22.7-51.07,51.07s22.7,51.07,51.07,51.07s51.07-22.7,51.07-51.07
					S278.37,198.93,250,198.93 M250,283.02c-18.06,0-33.02-14.96-33.02-33.02s14.96-33.02,33.02-33.02s33.02,14.96,33.02,33.02
					S268.06,283.02,250,283.02"/>
			</g>
		</g>
		<g id="XMLID_16_">
			<path class="st1" d="M315,196.86c0,6.71-5.16,11.87-11.87,11.87c-6.71,0-11.87-5.16-11.87-11.87S296.43,185,303.14,185
				C309.84,185,315,190.16,315,196.86"/>
		</g>
	</g>
</g>
</svg>
