<?xml version="1.0" encoding="utf-8"?>
<!-- Generator: Adobe Illustrator 25.2.3, SVG Export Plug-In . SVG Version: 6.00 Build 0)  -->
<svg version="1.1" id="Layer_1" xmlns="http://www.w3.org/2000/svg" xmlns:xlink="http://www.w3.org/1999/xlink" x="0px" y="0px"
	 viewBox="0 0 612 792" style="enable-background:new 0 0 612 792;" xml:space="preserve">
<style type="text/css">
	.st0{fill:#11233D;}
</style>
<g>
	<g>
		<g>
			<g>
				<path class="st0" d="M348.23-154.45c0,0-6.64,49.13-8.88,100.64c-2.24,51.51-3.94,108.6-3.94,108.6s-0.36,13.15-6.93,16.81
					c-9.74,5.43-8.62,8.93-8.62,8.93s5.66-7.22,15.02,0.16c9.36,7.38,13.2,2.25,9.42-2.44c-3.79-4.7-1.91-81.35-0.5-105.79
					s9.83-104.44,13.75-114.59c3.92-10.15,16.03-13.22,2.27-22.98C346.06-174.86,332.48-170.93,348.23-154.45z"/>
				<path class="st0" d="M329.68,85.08c0,0,5.62-0.36,11.77,7.27s3.75,9.03-1.81,14.64c-5.55,5.62-14.8,126.14-15.73,149.07
					c-0.93,22.93-1,22.96-1.03,62.72c-0.01,10.66,2.75,17.95,3.77,23.97c7.19,42.64-3.74,17.99-9.99,17.26c-3.31-0.38-6,0-7.89,0.5
					c-1.24,0.33-2.24-1.04-1.59-2.15c1.3-2.2,3.56-5.06,7.27-7.11c6.04-3.35-2.74-13.23,2.75-92.9
					C328.14,99.39,322.19,85.87,329.68,85.08z"/>
			</g>
			<path class="st0" d="M319.58,327.34L389,389.48c0.28,0.25,0.57,0.48,0.88,0.7c3.17,2.28,21.8,15.4,31.97,16.87
				c11.14,1.6,86.92,21.52,86.92,21.52s-60.54-34.23-71.62-34.89c-11.07-0.66-33.17-9.33-47.78-5.96c0,0-59.7-53.49-63.86-57.94
				C321.35,325.32,316.55,312.38,319.58,327.34z"/>
			<path class="st0" d="M374.23,379.61c0,0,7.94,68.35,22.87,93.41c14.93,25.05,29.87,54.07,29.87,54.07s-13.81-34.64-17.67-40.61
				c-3.86-5.97-4.75-23.3-9.63-31.79S384.32,393.46,374.23,379.61z"/>
			<path class="st0" d="M429.63,146.38l57.77-8.47c0.37-0.05,0.74-0.12,1.1-0.21c3.79-0.95,25.85-6.71,33.53-13.54
				c8.42-7.48,72.54-52.51,72.54-52.51s-65.25,24.16-72.9,32.19s-28.54,19.31-35.38,32.65c0,0-44.87,6.62-50.97,6.93
				S416.23,139.05,429.63,146.38z"/>
			<path class="st0" d="M448.12,143.25c0,0,29.54-16.55,38.1-28.07c8.55-11.52,18.91-23.8,18.91-23.8s-13.12,12.83-15.1,15.71
				c-1.98,2.88-9.69,6.57-12.62,10.39C474.48,121.31,452.5,136.05,448.12,143.25z"/>
		</g>
		<path class="st0" d="M427.88,148.26c0,0-0.82-0.81-14.34-8.23c-27.6-15.15-58.63-31.1-58.63-31.1s-7.06-3.83-11-1.67
			c-5.84,3.2-6.01,1.61-6.01,1.61s2.79-0.44,1.74-7.35c-1.05-6.91,4.24-7.47,5.57-4.16c1.33,3.32,42.43,25.72,55.78,32.46
			c13.35,6.74,19.21,11.59,25.77,12.72c6.56,1.14,6.41,0.19,6.89,5.76C433.85,150.69,429.51,152.36,427.88,148.26z"/>
		<path class="st0" d="M427.04,146.94c0,0,17.68,46.63,32.63,61.61c14.95,14.97,30.61,32.73,30.61,32.73s-15.86-21.9-19.63-25.42
			c-3.77-3.51-7.47-15.54-12.41-20.64S436.6,154.89,427.04,146.94z"/>
	</g>
	<g>
		<g>
			<g>
				<path class="st0" d="M234.99,393.02c0,0-1.85-0.68,4.8-29.72c10.47-45.78,19.57-97.04,19.57-97.04s2.26-11.77,8.71-14.09
					c9.56-3.44,9.07-6.76,9.07-6.76s-6.15,5.65-13.48-2.36c-7.32-8.01-11.53-3.97-8.82,0.81c2.71,4.78-10.29,73.4-15.15,95.16
					s-6.21,33-11.24,41.54c-5.02,8.54-18.19,18.75-5.43,20.32C225.12,401.14,240.49,402.68,234.99,393.02z"/>
				<path class="st0" d="M268.98,239.89c0,0-5.1-0.5-9.51-8.27c-4.4-7.77-2.03-8.67,3.79-12.9c5.82-4.23,31.91-111.2,36.13-131.67
					c4.22-20.48,15.34-53.86,24.11-120.82c1.26-9.63,0.18-16.54,0.15-22.1c-0.17-39.38,5.61-13.49,11.29-12.69
					c6.48,0.92,10.39-1.24,10.39-1.24s-4.87,15.33-10.63,12.79c-5.75-2.54,2.21,13.58-28.94,142.98
					C271.8,227.09,275.83,240.28,268.98,239.89z"/>
			</g>
			<path class="st0" d="M255.13,240.98l-51.42,41.41c-0.21,0.17-0.4,0.34-0.59,0.53c-1.96,1.96-13.27,13.47-15.46,20.42
				c-2.4,7.61-25.02,58.31-25.02,58.31s30.89-38.41,32.62-46.07c1.73-7.67,10.33-22.12,9.65-32.72c0,0,44.25-35.6,47.85-38.01
				C256.34,242.45,265.94,240.58,255.13,240.98z"/>
			<path class="st0" d="M216.76,272.2c0,0-48.71-2.29-67.94,5.27c-19.23,7.56-41.24,14.68-41.24,14.68s25.81-5.68,30.42-7.7
				s16.84-0.65,23.34-3.09C167.83,278.93,205.91,277.66,216.76,272.2z"/>
			<path class="st0" d="M225.42,389.03l-67.58,18.68c-0.44,0.12-0.87,0.22-1.32,0.3c-4.63,0.79-31.66,5.15-43.41,1.37
				c-12.87-4.14-105.16-22.56-105.16-22.56s83.41-5.06,95.71,0.06c12.3,5.12,40.72,7.4,54.7,18.73c0,0,52.52-14.46,59.36-17.07
				C224.58,385.93,236.59,374.48,225.42,389.03z"/>
			<path class="st0" d="M199.7,396.57c0,0-34.8,34.05-54.16,41.19c-19.37,7.14-40.51,16.45-40.51,16.45s23.02-12.9,27.8-14.47
				c4.78-1.57,12.99-10.7,19.45-13.2C158.75,424.04,187.99,399.7,199.7,396.57z"/>
		</g>
	</g>
</g>
</svg>
