<?xml version="1.0" encoding="utf-8"?>
<!-- Generator: Adobe Illustrator 25.2.3, SVG Export Plug-In . SVG Version: 6.00 Build 0)  -->
<svg version="1.1" id="Layer_1" xmlns="http://www.w3.org/2000/svg" xmlns:xlink="http://www.w3.org/1999/xlink" x="0px" y="0px"
	 viewBox="0 0 500 147.27" style="enable-background:new 0 0 500 147.27;" xml:space="preserve">
<style type="text/css">
	.st0{fill:#FFFFFF;}
	.st1{fill:#5BC9E5;}
</style>
<g>
	<g>
		<g>
			<g>
				<polygon class="st0" points="156.28,11.9 109.71,102.17 125.39,102.17 164.18,27.46 				"/>
			</g>
			<g>
				<polygon class="st0" points="183.66,65.17 168.04,34.99 160.1,50.43 175.84,80.37 				"/>
			</g>
			<g>
				<polygon class="st0" points="219,11.9 172.43,102.17 188.11,102.17 226.89,27.46 				"/>
			</g>
			<g>
				<polygon class="st0" points="230.75,34.99 222.82,50.43 238.02,79.34 245.84,64.12 				"/>
			</g>
			<g>
				<polygon class="st0" points="284.33,50.1 311.36,102.17 327.04,102.17 292.24,34.71 				"/>
			</g>
			<g>
				<polygon class="st0" points="288.29,27.35 288.37,27.19 280.48,11.9 280.46,11.93 280.45,11.9 241.86,86.71 249.77,101.78 
					288.34,27.46 				"/>
			</g>
			<g>
				<path class="st0" d="M96.48,45.37c1.49-3.06,2.33-6.5,2.33-10.13c0-12.69-10.21-23.02-22.77-23.02H37.17v14.62h-0.06v75.2h0.22
					v0.1h46.32c16.27,0,29.51-13.4,29.51-29.88C113.16,60.45,106.35,50.21,96.48,45.37z M82.95,35.24c0,3.89-3.01,7.06-6.75,7.15
					H52.79V28.09h23.25C79.85,28.09,82.95,31.3,82.95,35.24z M83.65,86.29H52.79V58.26h7.89v0.01h15.36c0.11,0,0.21-0.01,0.32-0.01
					h7.29c7.53,0,13.65,6.29,13.65,14.02S91.18,86.29,83.65,86.29z"/>
			</g>
			<g>
				<path class="st0" d="M363.63,45.35c1.49-3.06,2.33-6.5,2.33-10.14c0-12.69-10.21-23.02-22.77-23.02h-23.25v-0.02h-15.86V44
					l15.86,30.4V58.23h30.86c7.53,0,13.65,6.29,13.65,14.02c0,7.73-6.12,14.02-13.65,14.02h-24.66l8.27,15.86h16.39
					c16.27,0,29.51-13.4,29.51-29.88C380.31,60.43,373.49,50.19,363.63,45.35z M319.94,28.05h23.25c3.81,0,6.91,3.21,6.91,7.16
					c0,3.95-3.1,7.16-6.91,7.16h-15.36v0h-7.89V28.05z"/>
			</g>
			<g>
				<polygon class="st0" points="447.03,11.97 447.03,44 462.88,11.97 				"/>
			</g>
			<g>
				<path class="st0" d="M447.03,59.5v5.38c0,11.78-9.58,21.36-21.36,21.36c-11.78,0-21.36-9.58-21.36-21.36V11.97h-15.86v52.92
					c0,20.52,16.69,37.22,37.22,37.22s37.22-16.69,37.22-37.22V27.47L447.03,59.5z"/>
			</g>
		</g>
	</g>
	<g>
		<path class="st1" d="M50.38,120.46v13.56h-2.66v-8.79l-3.83,6.29h-0.31l-3.83-6.28v8.77h-2.68v-13.56h2.76l3.91,6.41l3.89-6.41
			H50.38z"/>
		<path class="st1" d="M65.15,134.01l-0.82-2.44h-5.42l-0.82,2.44h-2.9l4.76-13.56h3.33l4.78,13.56H65.15z M59.77,129.07h3.73
			l-1.87-5.54L59.77,129.07z"/>
		<path class="st1" d="M80.36,134.01l-2.74-4.71h-2.04v4.71h-2.68v-13.56h5.44c1.27,0,2.33,0.44,3.21,1.32
			c0.87,0.87,1.32,1.94,1.32,3.18c0,1.69-1.05,3.24-2.62,3.95l3.01,5.11H80.36z M75.57,122.95v4.01h2.76c1.01,0,1.85-0.91,1.85-2.02
			c0-1.1-0.83-1.99-1.85-1.99H75.57z"/>
		<path class="st1" d="M98.96,134.01h-3.09l-4.86-6.35v6.35h-2.68v-13.56h2.68v5.98l4.67-5.98h3.09l-5.04,6.58L98.96,134.01z"/>
		<path class="st1" d="M106.47,131.46h5.74v2.56h-8.42v-13.56h8.32v2.55h-5.64v2.89h5.15v2.52h-5.15V131.46z"/>
		<path class="st1" d="M126.59,120.46v2.55h-3.68v11h-2.68v-11h-3.65v-2.55H126.59z"/>
		<path class="st1" d="M131.59,120.46h2.68v13.56h-2.68V120.46z"/>
		<path class="st1" d="M148.17,120.46h2.68v13.56h-2.04l-5.83-8.29v8.29h-2.68v-13.56h2.04l5.83,8.27V120.46z"/>
		<path class="st1" d="M170.24,126.73v1.05c0,1.93-0.62,3.51-1.87,4.7c-1.24,1.2-2.86,1.8-4.82,1.8c-2.1,0-3.85-0.68-5.23-2.03
			c-1.38-1.37-2.06-3.04-2.06-5c0-1.98,0.68-3.64,2.04-5.02c1.38-1.37,3.07-2.05,5.09-2.05c2.55,0,4.76,1.24,5.93,3.16l-2.29,1.32
			c-0.64-1.1-2.04-1.88-3.65-1.88c-1.3,0-2.37,0.43-3.21,1.28c-0.83,0.83-1.24,1.9-1.24,3.2c0,1.28,0.43,2.34,1.26,3.17
			c0.86,0.83,1.98,1.24,3.38,1.24c2.08,0,3.48-0.97,3.97-2.58h-4.12v-2.36H170.24z"/>
		<path class="st1" d="M194.77,120.46l-4.66,8.27v5.29h-2.66v-5.29l-4.65-8.27h3.03l2.95,5.65l2.95-5.65H194.77z"/>
		<path class="st1" d="M213.34,120.46c1.87,0,3.42,0.66,4.67,1.96c1.26,1.3,1.89,2.9,1.89,4.82c0,1.92-0.62,3.53-1.89,4.82
			c-1.24,1.3-2.8,1.96-4.67,1.96h-5.4v-13.56H213.34z M213.34,131.46c1.18,0,2.14-0.39,2.88-1.16c0.74-0.79,1.11-1.8,1.11-3.06
			c0-1.26-0.37-2.27-1.11-3.04c-0.74-0.79-1.69-1.18-2.88-1.18h-2.72v8.44H213.34z"/>
		<path class="st1" d="M227.98,131.46h5.74v2.56h-8.42v-13.56h8.32v2.55h-5.64v2.89h5.15v2.52h-5.15V131.46z"/>
		<path class="st1" d="M238.4,130.93l2.29-1.34c0.53,1.38,1.58,2.07,3.13,2.07c1.5,0,2.18-0.6,2.18-1.43c0-0.48-0.22-0.85-0.64-1.1
			c-0.43-0.27-1.19-0.56-2.29-0.87c-1.23-0.37-1.96-0.66-2.82-1.26c-0.83-0.62-1.28-1.55-1.28-2.79c0-1.22,0.43-2.21,1.3-2.92
			c0.88-0.74,1.94-1.1,3.17-1.1c2.2,0,3.93,1.12,4.86,3.04l-2.26,1.3c-0.54-1.16-1.42-1.74-2.6-1.74c-1.11,0-1.79,0.56-1.79,1.36
			c0,0.43,0.18,0.78,0.53,1.05c0.37,0.25,1.05,0.54,2.06,0.85l0.93,0.31c0.22,0.06,0.51,0.17,0.88,0.33
			c0.37,0.13,0.66,0.27,0.86,0.41c0.41,0.25,1.03,0.74,1.28,1.2c0.29,0.46,0.51,1.14,0.51,1.92c0,1.26-0.47,2.25-1.38,2.98
			c-0.92,0.74-2.1,1.1-3.56,1.1C241.05,134.28,239.16,133,238.4,130.93z"/>
		<path class="st1" d="M262.47,134.01l-0.82-2.44h-5.42l-0.82,2.44h-2.9l4.76-13.56h3.33l4.78,13.56H262.47z M257.09,129.07h3.73
			l-1.87-5.54L257.09,129.07z"/>
		<path class="st1" d="M277.68,134.01l-2.74-4.71h-2.04v4.71h-2.68v-13.56h5.44c1.27,0,2.33,0.44,3.21,1.32
			c0.87,0.87,1.32,1.94,1.32,3.18c0,1.69-1.05,3.24-2.62,3.95l3.01,5.11H277.68z M272.89,122.95v4.01h2.76
			c1.01,0,1.85-0.91,1.85-2.02c0-1.1-0.83-1.99-1.85-1.99H272.89z"/>
		<path class="st1" d="M293.11,134.01l-2.74-4.71h-2.04v4.71h-2.68v-13.56h5.44c1.27,0,2.33,0.44,3.21,1.32
			c0.87,0.87,1.32,1.94,1.32,3.18c0,1.69-1.05,3.24-2.62,3.95l3.01,5.11H293.11z M288.33,122.95v4.01h2.76
			c1.01,0,1.85-0.91,1.85-2.02c0-1.1-0.83-1.99-1.85-1.99H288.33z"/>
		<path class="st1" d="M307.36,134.28c-1.96,0-3.64-0.68-5.02-2.03c-1.36-1.37-2.04-3.04-2.04-5.02c0-1.97,0.68-3.64,2.04-5
			c1.38-1.37,3.05-2.05,5.02-2.05s3.64,0.68,5.01,2.05c1.38,1.36,2.06,3.02,2.06,5c0,1.98-0.68,3.64-2.06,5.02
			C311,133.61,309.33,134.28,307.36,134.28z M307.36,131.67c1.24,0,2.29-0.41,3.13-1.24c0.83-0.83,1.26-1.9,1.26-3.2
			c0-1.3-0.43-2.36-1.26-3.2c-0.84-0.83-1.89-1.26-3.13-1.26s-2.29,0.43-3.13,1.26c-0.83,0.83-1.26,1.9-1.26,3.2
			c0,1.3,0.43,2.36,1.26,3.2C305.07,131.26,306.12,131.67,307.36,131.67z"/>
		<path class="st1" d="M322.51,131.46h5.19v2.56h-7.87v-13.56h2.68V131.46z"/>
		<path class="st1" d="M335.4,131.46h5.19v2.56h-7.87v-13.56h2.68V131.46z"/>
		<path class="st1" d="M351.21,134.28c-1.96,0-3.64-0.68-5.02-2.03c-1.36-1.37-2.04-3.04-2.04-5.02c0-1.97,0.68-3.64,2.04-5
			c1.38-1.37,3.05-2.05,5.02-2.05c1.96,0,3.64,0.68,5.01,2.05c1.38,1.36,2.06,3.02,2.06,5c0,1.98-0.68,3.64-2.06,5.02
			C354.84,133.61,353.17,134.28,351.21,134.28z M351.21,131.67c1.24,0,2.29-0.41,3.13-1.24c0.83-0.83,1.26-1.9,1.26-3.2
			c0-1.3-0.43-2.36-1.26-3.2c-0.84-0.83-1.89-1.26-3.13-1.26c-1.24,0-2.29,0.43-3.13,1.26c-0.83,0.83-1.26,1.9-1.26,3.2
			c0,1.3,0.43,2.36,1.26,3.2C348.91,131.26,349.96,131.67,351.21,131.67z"/>
		<path class="st1" d="M377.43,120.46c1.87,0,3.42,0.66,4.67,1.96c1.26,1.3,1.89,2.9,1.89,4.82c0,1.92-0.62,3.53-1.89,4.82
			c-1.24,1.3-2.8,1.96-4.67,1.96h-5.4v-13.56H377.43z M377.43,131.46c1.18,0,2.14-0.39,2.88-1.16c0.74-0.79,1.11-1.8,1.11-3.06
			c0-1.26-0.37-2.27-1.11-3.04c-0.74-0.79-1.69-1.18-2.88-1.18h-2.72v8.44H377.43z"/>
		<path class="st1" d="M389.39,120.46h2.68v13.56h-2.68V120.46z"/>
		<path class="st1" d="M411.46,126.73v1.05c0,1.93-0.62,3.51-1.86,4.7c-1.24,1.2-2.86,1.8-4.82,1.8c-2.1,0-3.85-0.68-5.23-2.03
			c-1.38-1.37-2.06-3.04-2.06-5c0-1.98,0.68-3.64,2.04-5.02c1.38-1.37,3.07-2.05,5.09-2.05c2.55,0,4.76,1.24,5.93,3.16l-2.29,1.32
			c-0.64-1.1-2.04-1.88-3.65-1.88c-1.3,0-2.37,0.43-3.21,1.28c-0.83,0.83-1.24,1.9-1.24,3.2c0,1.28,0.43,2.34,1.26,3.17
			c0.86,0.83,1.98,1.24,3.38,1.24c2.08,0,3.48-0.97,3.97-2.58h-4.12v-2.36H411.46z"/>
		<path class="st1" d="M416.86,120.46h2.68v13.56h-2.68V120.46z"/>
		<path class="st1" d="M434.57,120.46v2.55h-3.68v11h-2.68v-11h-3.65v-2.55H434.57z"/>
		<path class="st1" d="M447.33,134.01l-0.82-2.44h-5.42l-0.82,2.44h-2.9l4.76-13.56h3.33l4.78,13.56H447.33z M441.94,129.07h3.73
			l-1.87-5.54L441.94,129.07z"/>
		<path class="st1" d="M457.75,131.46h5.19v2.56h-7.87v-13.56h2.68V131.46z"/>
	</g>
</g>
</svg>
