<?xml version="1.0" encoding="utf-8"?>
<!-- Generator: Adobe Illustrator 25.2.3, SVG Export Plug-In . SVG Version: 6.00 Build 0)  -->
<svg version="1.1" id="Layer_1" xmlns="http://www.w3.org/2000/svg" xmlns:xlink="http://www.w3.org/1999/xlink" x="0px" y="0px"
	 viewBox="0 0 202 265.02" style="enable-background:new 0 0 202 265.02;" xml:space="preserve">
<style type="text/css">
	.st0{fill:#12233E;}
</style>
<g>
	<g>
		<g>
			<g>
				<path class="st0" d="M71.16,11.05c0,0,3.11,18.09,8.04,36.53s10.66,38.8,10.66,38.8s1.33,4.68-0.58,6.71
					c-2.84,3-2.05,4.11-2.05,4.11s1.2-3.18,5.32-1.61c4.12,1.57,4.91-0.67,3.05-1.91c-1.86-1.24-9.7-28.52-11.92-37.31
					s-8.12-37.98-7.86-42c0.26-4.02,4.19-6.45-1.75-8.37S63.77,6.98,71.16,11.05z"/>
				<path class="st0" d="M91.2,97.71c0,0,1.94-0.75,4.96,1.26c3.02,2.01,2.33,2.77,0.99,5.37s8.78,46.2,10.99,54.4
					c2.22,8.2,2.2,8.22,6.6,22.27c1.18,3.77,2.96,6.04,3.99,8.05c7.27,14.26,0.67,6.77-1.61,7.21c-1.21,0.23-2.12,0.67-2.73,1.05
					c-0.4,0.25-0.91-0.12-0.8-0.58c0.22-0.92,0.7-2.18,1.78-3.32c1.76-1.85-2.44-4.37-9.34-33.12
					C92.25,102.94,88.64,98.82,91.2,97.71z"/>
			</g>
			<path class="st0" d="M114.53,184.4l31.42,14.24c0.13,0.06,0.25,0.11,0.39,0.15c1.37,0.45,9.41,3.02,13.16,2.41
				c4.11-0.67,33.09-2.05,33.09-2.05s-25.18-5.37-29.17-4.37s-12.75,0.39-17.54,3.2c0,0-27.02-12.26-28.99-13.38
				C114.93,183.49,111.8,179.45,114.53,184.4z"/>
			<path class="st0" d="M139.63,196.79c0,0,10.39,23.26,18.45,30.45c8.05,7.19,16.55,15.78,16.55,15.78s-8.72-10.7-10.75-12.38
				c-2.03-1.68-4.26-7.7-6.93-10.16C154.29,218.03,144.73,200.57,139.63,196.79z"/>
			<path class="st0" d="M133.31,108.27l19.46-9.4c0.13-0.06,0.25-0.13,0.37-0.2c1.23-0.76,8.38-5.24,10.34-8.5
				c2.14-3.58,19.79-26.6,19.79-26.6s-20.37,15.78-22.18,19.46s-7.94,9.99-8.87,15.46c0,0-15.11,7.32-17.23,8.11
				C132.87,107.38,127.76,107.16,133.31,108.27z"/>
			<path class="st0" d="M139.49,105.11c0,0,8.6-9.13,10.34-14.14c1.74-5.02,4.04-10.51,4.04-10.51s-3.21,5.99-3.59,7.23
				c-0.38,1.24-2.69,3.4-3.3,5.07C146.37,94.43,140.24,102.08,139.49,105.11z"/>
		</g>
		<path class="st0" d="M132.9,109.12c0,0-0.38-0.2-5.98-1.32c-11.43-2.29-24.16-4.48-24.16-4.48s-2.92-0.57-4.07,0.63
			c-1.71,1.78-1.94,1.23-1.94,1.23s0.94-0.47-0.2-2.79c-1.14-2.32,0.67-3.11,1.51-2.09c0.84,1.02,17.84,4.37,23.31,5.27
			c5.46,0.9,8.07,1.96,10.51,1.63c2.44-0.33,2.29-0.64,3.07,1.27C135.28,109.32,133.93,110.39,132.9,109.12z"/>
		<path class="st0" d="M132.46,108.75c0,0,11.42,14.51,18.36,18.14c6.94,3.63,14.44,8.16,14.44,8.16s-8.03-5.98-9.76-6.8
			s-4.36-4.66-6.67-5.91C146.52,121.09,136.71,110.5,132.46,108.75z"/>
	</g>
	<g>
		<g>
			<g>
				<path class="st0" d="M91.94,216.99c0,0-0.73-0.03-1.61-11.03c-1.38-17.33-3.86-36.45-3.86-36.45s-0.51-4.41,1.51-5.94
					c2.99-2.28,2.45-3.39,2.45-3.39s-1.55,2.68-5.02,0.66s-4.51-0.12-3.03,1.26c1.49,1.39,4.51,27.07,5.21,35.29
					c0.7,8.23,1.47,12.34,0.64,15.92c-0.83,3.57-4.34,8.64,0.34,7.78C89.36,220.95,94.95,219.79,91.94,216.99z"/>
				<path class="st0" d="M86.94,159.13c0,0-1.86,0.39-4.28-1.87s-1.68-2.84-0.09-4.98c1.59-2.14-1.07-42.82-1.86-50.52
					c-0.78-7.7-0.56-20.72-4.9-45.35c-0.62-3.54-1.77-5.86-2.4-7.82c-4.43-13.89,0.48-5.39,2.58-5.73c2.39-0.4,3.53-1.59,3.53-1.59
					s-0.02,5.96-2.33,5.7c-2.31-0.26,2.29,4.55,5.65,53.71C86.52,154.29,89.41,158.51,86.94,159.13z"/>
			</g>
			<path class="st0" d="M82.18,161.05l-13.56,20.34c-0.06,0.08-0.1,0.17-0.15,0.25c-0.47,0.91-3.19,6.23-3.2,8.93
				c0,2.95-2.37,23.37-2.37,23.37s6.65-16.99,6.41-19.89c-0.24-2.9,1.19-8.96-0.22-12.63c0,0,11.68-17.49,12.68-18.74
				C82.76,161.44,85.95,159.71,82.18,161.05z"/>
			<path class="st0" d="M72.09,176.34c0,0-17.46,4.6-23.41,9.4s-12.94,9.76-12.94,9.76s8.48-4.87,9.89-6.1s5.88-2.1,7.9-3.68
				C55.56,184.15,68.86,179.47,72.09,176.34z"/>
			<path class="st0" d="M88.12,216.64l-21.8,14.1c-0.14,0.09-0.28,0.17-0.43,0.25c-1.55,0.79-10.61,5.33-15.18,5.3
				C45.7,236.26,11.06,240,11.06,240s28.9-11.05,33.81-10.6c4.91,0.44,15.2-1.91,21.4,0.54c0,0,16.94-10.94,19.07-12.62
				C87.47,215.64,90.45,210.26,88.12,216.64z"/>
			<path class="st0" d="M79.87,222.16c0,0-8.51,15.89-14.56,20.56s-12.48,10.31-12.48,10.31s6.7-7.11,8.21-8.2
				c1.51-1.08,3.4-5.22,5.41-6.82C68.46,236.41,76.08,224.57,79.87,222.16z"/>
		</g>
	</g>
</g>
</svg>
